<?xml version="1.0" encoding="UTF-8"?>
<svg width="135px" height="40px" viewBox="0 0 135 40" version="1.1" xmlns="http://www.w3.org/2000/svg" xmlns:xlink="http://www.w3.org/1999/xlink">
    <!-- Generator: Sketch 55.2 (78181) - https://sketchapp.com -->
    <title>it</title>
    <desc>Created with Sketch.</desc>
    <defs>
        <linearGradient x1="61.0339412%" y1="4.9481245%" x2="26.5026568%" y2="71.9074222%" id="linearGradient-1">
            <stop stop-color="#00A0FF" offset="0%"></stop>
            <stop stop-color="#00A1FF" offset="1%"></stop>
            <stop stop-color="#00BEFF" offset="26%"></stop>
            <stop stop-color="#00D2FF" offset="51%"></stop>
            <stop stop-color="#00DFFF" offset="76%"></stop>
            <stop stop-color="#00E3FF" offset="100%"></stop>
        </linearGradient>
        <linearGradient x1="107.684729%" y1="50%" x2="-130.640394%" y2="50%" id="linearGradient-2">
            <stop stop-color="#FFE000" offset="0%"></stop>
            <stop stop-color="#FFBD00" offset="41%"></stop>
            <stop stop-color="#FFA500" offset="78%"></stop>
            <stop stop-color="#FF9C00" offset="100%"></stop>
        </linearGradient>
        <linearGradient x1="86.219293%" y1="30.9112842%" x2="-50.1497903%" y2="135.987548%" id="linearGradient-3">
            <stop stop-color="#FF3A44" offset="0%"></stop>
            <stop stop-color="#C31162" offset="100%"></stop>
        </linearGradient>
        <linearGradient x1="-18.7537448%" y1="-11.831554%" x2="42.1210306%" y2="35.0948125%" id="linearGradient-4">
            <stop stop-color="#32A071" offset="0%"></stop>
            <stop stop-color="#2DA771" offset="7%"></stop>
            <stop stop-color="#15CF74" offset="48%"></stop>
            <stop stop-color="#06E775" offset="80%"></stop>
            <stop stop-color="#00F076" offset="100%"></stop>
        </linearGradient>
    </defs>
    <g id="Page-1" stroke="none" stroke-width="1" fill="none" fill-rule="evenodd">
        <g id="it" fill-rule="nonzero">
            <rect id="Rectangle" fill="#000000" x="0" y="0" width="135" height="40" rx="5"></rect>
            <path d="M130,0.8 C132.319596,0.8 134.2,2.68040405 134.2,5 L134.2,35 C134.2,37.3195959 132.319596,39.2 130,39.2 L5,39.2 C2.68040405,39.2 0.8,37.3195959 0.8,35 L0.8,5 C0.8,2.68040405 2.68040405,0.8 5,0.8 L130,0.8 L130,0.8 Z M130,0 L5,0 C2.23857625,0 0,2.23857625 0,5 L0,35 C0,37.7614237 2.23857625,40 5,40 L130,40 C132.761424,40 135,37.7614237 135,35 L135,5 C135,2.23857625 132.761424,0 130,0 Z" id="Shape" fill="#A6A6A6"></path>
            <path d="M68.14,21.75 C65.795425,21.7610334 63.9026739,23.6686811 63.9099995,26.0132706 C63.9173678,28.3578601 65.8220372,30.2536083 68.1666353,30.2499531 C70.5112334,30.2462873 72.409974,28.344601 72.4099995,26 C72.426473,24.8643738 71.9812316,23.7707097 71.1762551,22.9695037 C70.3712787,22.1682976 69.2755364,21.7281956 68.14,21.75 L68.14,21.75 Z M68.14,28.58 C67.0832273,28.6539053 66.088673,28.0743135 65.6320213,27.1184371 C65.1753697,26.1625607 65.3494358,25.0246828 66.0709659,24.249038 C66.7924959,23.4733932 67.9148379,23.2176324 68.9011878,23.6040831 C69.8875378,23.9905338 70.5374189,24.9406494 70.54,26 C70.5725428,26.6626719 70.3360327,27.3103928 69.8841403,27.7961771 C69.432248,28.2819613 68.8032921,28.5646164 68.14,28.58 L68.14,28.58 Z M58.83,21.75 C56.4840995,21.7555198 54.5863275,23.6607469 54.5899999,26.006651 C54.5936829,28.3525551 56.4974192,30.2518225 58.8433255,30.2499883 C61.1892318,30.2481513 63.0899999,28.345907 63.0899999,26 C63.106473,24.8643738 62.6612316,23.7707097 61.8562551,22.9695037 C61.0512787,22.1682976 59.9555364,21.7281956 58.82,21.75 L58.83,21.75 Z M58.83,28.58 C57.7726757,28.658073 56.7752215,28.0813713 56.3153517,27.1260966 C55.8554819,26.1708219 56.0268227,25.0314615 56.7473134,24.2536934 C57.467804,23.4759253 58.5907575,23.2180976 59.5783538,23.6036927 C60.5659501,23.9892877 61.2171215,24.9398011 61.22,26 C61.2525428,26.6626719 61.0160327,27.3103928 60.5641403,27.7961771 C60.112248,28.2819613 59.4832921,28.5646164 58.82,28.58 L58.83,28.58 Z M47.74,23.06 L47.74,24.86 L52.06,24.86 C51.9922634,25.7078038 51.6398446,26.5077945 51.06,27.13 C50.1860229,28.0202246 48.9765432,28.499658 47.73,28.45 C45.0790332,28.45 42.93,26.3009668 42.93,23.65 C42.93,20.9990332 45.0790332,18.85 47.73,18.85 C48.9477957,18.8301388 50.123762,19.2940521 51,20.14 L52.27,18.87 C51.0749196,17.6598581 49.4407184,16.9852541 47.74,17 C45.3189608,16.905779 43.0403936,18.1436718 41.801854,20.2260571 C40.5633145,22.3084423 40.5633145,24.9015577 41.801854,26.9839429 C43.0403936,29.0663282 45.3189608,30.304221 47.74,30.21 C49.471765,30.2882543 51.1527407,29.6136762 52.35,28.36 C53.3976757,27.2089216 53.9570431,25.6957612 53.91,24.14 C53.9132269,23.7609882 53.8797372,23.3825548 53.81,23.01 L47.74,23.06 Z M93.05,24.46 C92.5160796,22.8892101 91.0679278,21.811053 89.41,21.7499923 C88.3043635,21.7478383 87.2471451,22.2034076 86.4893794,23.0085336 C85.7316138,23.8136596 85.3408955,24.8965231 85.41,26 C85.385441,27.1292961 85.8211644,28.2200283 86.6170522,29.0215741 C87.4129399,29.8231198 88.5005582,30.2665588 89.63,30.2499923 C91.0508585,30.257659 92.3806434,29.5514455 93.17,28.37 L91.72,27.37 C91.279746,28.1039422 90.4858563,28.552167 89.63,28.55 C88.7435914,28.5837851 87.9266413,28.0721998 87.57,27.26 L93.26,24.91 L93.05,24.46 Z M87.25,25.88 C87.2090519,25.2551643 87.4213257,24.640145 87.8389667,24.1735911 C88.2566076,23.7070373 88.8444602,23.4282216 89.47,23.4 C90.1293698,23.3565516 90.7510664,23.7106826 91.05,24.3 L87.25,25.88 Z M82.63,30 L84.5,30 L84.5,17.5 L82.63,17.5 L82.63,30 Z M79.57,22.6999974 L79.5,22.6999974 C78.9299621,22.0626768 78.1150572,21.69888 77.26,21.6999974 C74.9901469,21.8100717 73.2063371,23.6824796 73.2063371,25.955 C73.2063371,28.2275204 74.9901469,30.0999283 77.26,30.21 C78.117829,30.2244237 78.9380159,29.8582688 79.5,29.21 L79.56,29.21 L79.56,29.82 C79.56,31.45 78.69,32.32 77.29,32.32 C76.336303,32.2976774 75.4907281,31.7010334 75.15,30.81 L73.52,31.49 C74.1476816,33.016811 75.6392308,34.0098583 77.29,34.0000727 C79.48,34.0000727 81.29,32.71 81.29,29.57 L81.29,22 L79.57,22 L79.57,22.6999974 Z M77.43,28.58 C76.0928876,28.4621598 75.0673763,27.342295 75.0673763,26 C75.0673763,24.657705 76.0928876,23.5378402 77.43,23.42 C78.0761196,23.4531575 78.6814859,23.7457702 79.1088498,24.2314965 C79.5362137,24.7172228 79.749373,25.3549169 79.7,26 C79.7551348,26.6480494 79.5426575,27.2904311 79.1119703,27.7777877 C78.6812831,28.2651443 78.0699104,28.5550138 77.42,28.58 L77.43,28.58 Z M101.81,17.5 L97.34,17.5 L97.34,30 L99.21,30 L99.21,25.26 L101.82,25.26 C103.272684,25.3643638 104.661974,24.648509 105.42013,23.404973 C106.178286,22.161437 106.178286,20.598563 105.42013,19.355027 C104.661974,18.111491 103.272684,17.3956362 101.82,17.5 L101.81,17.5 Z M101.81,23.5 L99.2,23.5 L99.2,19.24 L101.85,19.24 C103.034651,19.24 103.995,20.2003492 103.995,21.385 C103.995,22.5696508 103.034651,23.53 101.85,23.53 L101.81,23.5 Z M113.34,21.7 C111.948713,21.6168389 110.640687,22.367088 110.01,23.61 L111.67,24.3 C112.004406,23.6836682 112.671125,23.3228556 113.37,23.38 C113.849528,23.3239946 114.331454,23.4629701 114.707528,23.7657102 C115.083603,24.0684503 115.322299,24.5095749 115.37,24.99 L115.37,25.12 C114.769393,24.8019991 114.099592,24.6371252 113.42,24.64 C111.63,24.64 109.82,25.64 109.82,27.45 C109.855688,28.2297088 110.20524,28.9618295 110.789131,29.4797974 C111.373022,29.9977652 112.141598,30.2575326 112.92,30.2 C113.879229,30.2688831 114.799569,29.8087132 115.32,29 L115.38,29 L115.38,30 L117.18,30 L117.18,25.19 C117.18,23 115.52,21.73 113.39,21.73 L113.34,21.7 Z M113.11,28.55 C112.5,28.55 111.65,28.24 111.65,27.49 C111.65,26.49 112.71,26.16 113.65,26.16 C114.244042,26.1453419 114.831131,26.2903874 115.35,26.58 C115.220696,27.699415 114.286524,28.5525405 113.16,28.58 L113.11,28.55 Z M123.74,22 L121.6,27.42 L121.54,27.42 L119.32,22 L117.32,22 L120.65,29.58 L118.75,33.79 L120.7,33.79 L125.82,22 L123.74,22 Z M106.93,30 L108.8,30 L108.8,17.5 L106.93,17.5 L106.93,30 Z" id="Shape" fill="#FFFFFF"></path>
            <path d="M10.44,7.54 C10.114065,7.93110834 9.94955365,8.43179492 9.98,8.94 L9.98,31.06 C9.94955365,31.5682051 10.114065,32.0688917 10.44,32.46 L10.51,32.53 L22.9,20.15 L22.9,19.86 L10.51,7.47 L10.44,7.54 Z" id="Path" fill="url(#linearGradient-1)"></path>
            <path d="M27,24.28 L22.9,20.15 L22.9,19.86 L27,15.72 L27.09,15.77 L32,18.56 C33.4,19.35 33.4,20.65 32,21.45 L27.11,24.23 L27,24.28 Z" id="Path" fill="url(#linearGradient-2)"></path>
            <path d="M27.12,24.22 L22.9,20 L10.44,32.46 C11.0287177,32.9775224 11.902429,33.0027256 12.52,32.52 L27.13,24.22" id="Path" fill="url(#linearGradient-3)"></path>
            <path d="M27.12,15.78 L12.51,7.48 C11.892429,6.99727439 11.0187177,7.0224776 10.43,7.54 L22.9,20 L27.12,15.78 Z" id="Path" fill="url(#linearGradient-4)"></path>
            <path d="M27,24.13 L12.51,32.38 C11.9170385,32.8233364 11.1029615,32.8233364 10.51,32.38 L10.44,32.45 L10.51,32.52 C11.1018458,32.9666792 11.9181542,32.9666792 12.51,32.52 L27.12,24.22 L27,24.13 Z" id="Path" fill="#000000" opacity="0.2"></path>
            <path d="M10.44,32.32 C10.114065,31.9288917 9.94955365,31.4282051 9.98,30.92 L9.98,31.07 C9.94955365,31.5782051 10.114065,32.0788917 10.44,32.47 L10.51,32.4 L10.44,32.32 Z M32,21.3 L27,24.13 L27.09,24.22 L32,21.44 C32.5670701,21.1736132 32.9484684,20.6243997 33,20 C32.8860295,20.5648379 32.516706,21.0449585 32,21.3 Z" id="Shape" fill="#000000" opacity="0.12"></path>
            <path d="M12.51,7.62 L32,18.7 C32.516706,18.9550415 32.8860295,19.4351621 33,20 C32.9484684,19.3756003 32.5670701,18.8263868 32,18.56 L12.51,7.48 C11.11,6.69 9.97,7.35 9.97,8.95 L9.97,9.1 C10,7.49 11.12,6.83 12.51,7.62 L12.51,7.62 Z" id="Path" fill="#FFFFFF" opacity="0.25"></path>
            <path d="M41.27,13 L41.27,7 L43.1,7 C43.91914,6.96301656 44.7177196,7.26293561 45.31,7.83 C45.872859,8.40870261 46.1729932,9.19339077 46.14,10 C46.1729932,10.8066092 45.872859,11.5912974 45.31,12.17 C44.7177196,12.7370644 43.91914,13.0369834 43.1,13 L41.27,13 Z M42.04,12.26 L43.1,12.26 C43.7085576,12.2916923 44.3039444,12.075188 44.75,11.66 C45.1734347,11.2143911 45.3941496,10.6137573 45.36,10 C45.4119394,9.38793776 45.1919959,8.78401656 44.7586112,8.34870567 C44.3252265,7.91339479 43.7222866,7.69077532 43.11,7.74 L42,7.74 L42.04,12.26 Z M47.23,13 L47.23,7 L48,7 L48,13 L47.23,13 Z M51.06,13.1300041 C50.5992605,13.1217398 50.1522798,12.9715822 49.78,12.7 C49.3658545,12.4169838 49.0731783,11.9886772 48.96,11.5 L49.66,11.22 C49.7402112,11.5426937 49.9183689,11.8326366 50.17,12.05 C50.4104121,12.2695246 50.7244415,12.3908542 51.05,12.39 C51.3574459,12.4001684 51.6596824,12.3087945 51.91,12.13 C52.1446721,11.966871 52.2803,11.6956151 52.27,11.41 C52.2828682,11.10996 52.1484831,10.8225251 51.91,10.64 C51.5647914,10.4074879 51.1827336,10.2350548 50.78,10.13 C50.3318267,10.0098234 49.9176386,9.78732569 49.57,9.48 C49.301065,9.21761351 49.1526632,8.8556579 49.16,8.48 C49.1606816,8.05062162 49.3465638,7.64240976 49.67,7.36 C50.0318587,7.02847001 50.5095442,6.85248063 51,6.87 C51.444792,6.84984138 51.8828735,6.98409217 52.24,7.25 C52.5252585,7.4581973 52.7412863,7.7473958 52.86,8.08 L52.16,8.37 C52.0987379,8.15724566 51.9686034,7.97083677 51.79,7.84 C51.3329836,7.51123476 50.7170164,7.51123476 50.26,7.84 C50.0616313,7.98365256 49.9459008,8.21511352 49.95,8.46 C49.9491509,8.68563445 50.0571169,8.89784334 50.24,9.03 C50.4978964,9.2141104 50.7853709,9.35277459 51.09,9.44 C51.3415925,9.5197565 51.5886289,9.61322976 51.83,9.72 C52.0419158,9.8189195 52.242993,9.9395658 52.43,10.08 C52.6278566,10.2209659 52.7862389,10.410336 52.89,10.63 C52.9997551,10.871632 53.0544074,11.1346459 53.05,11.4 C53.0549354,11.6708336 52.9931162,11.9387168 52.87,12.18 C52.7577676,12.3973713 52.5927139,12.5830567 52.39,12.72 C52.1934718,12.8549331 51.9777102,12.9594426 51.75,13.03 C51.5260936,13.0967416 51.2936414,13.1304304 51.06,13.1300041 L51.06,13.1300041 Z M54.94,13 L54.17,13 L54.17,7 L56.17,7 C56.6592548,6.99369251 57.1320824,7.17637594 57.49,7.51 C57.84779,7.83945847 58.0513567,8.30362915 58.0513567,8.79 C58.0513567,9.27637085 57.84779,9.74054153 57.49,10.07 C57.1326449,10.4045211 56.6594416,10.5873496 56.17,10.58 L54.94,10.58 L54.94,13 Z M54.94,9.83 L56.23,9.83 C56.5260457,9.84096736 56.8117164,9.72010665 57.01,9.5 C57.2055519,9.31151677 57.3160259,9.05159982 57.3160259,8.78 C57.3160259,8.50840018 57.2055519,8.24848323 57.01,8.06 C56.8117164,7.83989335 56.5260457,7.71903264 56.23,7.73 L54.94,7.73 L54.94,9.83 Z M64,12.22 C62.7829898,13.4302279 60.8170102,13.4302279 59.6,12.22 C58.4202689,10.9712339 58.4202689,9.01876613 59.6,7.77 C60.1819984,7.18374669 60.9739158,6.85403297 61.8,6.85403297 C62.6260842,6.85403297 63.4180016,7.18374669 64,7.77 C65.1847655,9.01675984 65.1847655,10.9732402 64,12.22 L64,12.22 Z M60.17,11.72 C61.0713239,12.6175651 62.5286761,12.6175651 63.43,11.72 C64.3151983,10.7441711 64.3151983,9.25582886 63.43,8.28 C62.5286761,7.38243493 61.0713239,7.38243493 60.17,8.28 C59.2848017,9.25582886 59.2848017,10.7441711 60.17,11.72 L60.17,11.72 Z M65.94,13 L65.94,7 L66.88,7 L69.8,11.67 L69.8,7 L70.57,7 L70.57,13 L69.77,13 L66.72,8.11 L66.72,13 L65.94,13 Z M71.94,13 L71.94,7 L72.71,7 L72.71,13 L71.94,13 Z M74.08,13 L74.08,7 L76.25,7 C76.7005605,6.99149081 77.1372206,7.15613316 77.47,7.46 C77.8120007,7.75167734 78.0062787,8.18055507 78,8.63 C78.0046929,8.89656215 77.9279426,9.15821095 77.78,9.38 C77.6331767,9.59543103 77.4287269,9.76522834 77.19,9.87 C77.4800671,9.96602197 77.7344622,10.1472349 77.92,10.39 C78.1122885,10.6350038 78.2146585,10.9385839 78.21,11.25 C78.2203361,11.7167258 78.0224315,12.1638434 77.67,12.47 C77.321804,12.7911878 76.8636653,12.966569 76.39,12.96 L74.08,13 Z M74.85,9.57 L76.25,9.57 C76.5146389,9.58104763 76.7707079,9.4749619 76.95,9.28 C77.1302587,9.11918382 77.2374033,8.89200221 77.2468323,8.65061845 C77.2562614,8.40923469 77.1671648,8.17438741 77,8 C76.830816,7.80863046 76.5853181,7.70237016 76.33,7.71 L74.85,7.71 L74.85,9.57 Z M74.85,12.26 L76.4,12.26 C76.6742187,12.2691998 76.9382331,12.1555269 77.12,11.95 C77.2963151,11.7671249 77.3964241,11.524003 77.4,11.27 C77.4,10.7177153 76.9522847,10.27 76.4,10.27 L74.85,10.27 L74.85,12.26 Z M79.23,13 L79.23,7 L80,7 L80,13 L79.23,13 Z M81.37,13 L81.37,7 L82.14,7 L82.14,12.26 L84.74,12.26 L84.74,13 L81.37,13 Z M89.22,7.74 L86.48,7.74 L86.48,9.64 L88.94,9.64 L88.94,10.36 L86.48,10.36 L86.48,12.26 L89.21,12.26 L89.21,13 L85.71,13 L85.71,7 L89.21,7 L89.22,7.74 Z M93.88,13.13 C93.4192605,13.1217398 92.9722798,12.9715822 92.6,12.7 C92.1858545,12.4169838 91.8931783,11.9886772 91.78,11.5 L92.48,11.22 C92.5602112,11.5426937 92.7383689,11.8326366 92.99,12.05 C93.2304121,12.2695246 93.5444415,12.3908542 93.87,12.39 C94.1774459,12.4001684 94.4796824,12.3087945 94.73,12.13 C94.9646721,11.966871 95.1003,11.6956151 95.09,11.41 C95.1028682,11.10996 94.9684831,10.8225251 94.73,10.64 C94.3847914,10.4074879 94.0027336,10.2350548 93.6,10.13 C93.1518267,10.0098234 92.7376386,9.78732569 92.39,9.48 C92.121065,9.21761351 91.9726632,8.8556579 91.98,8.48 C91.9806816,8.05062162 92.1665638,7.64240976 92.49,7.36 C92.853425,7.03209757 93.3309313,6.85976448 93.82,6.88 C94.264792,6.85984138 94.7028735,6.99409217 95.06,7.26 C95.3452585,7.4681973 95.5612863,7.7573958 95.68,8.09 L94.98,8.38 C94.9187379,8.16724566 94.7886034,7.98083677 94.61,7.85 C94.1529836,7.52123476 93.5370164,7.52123476 93.08,7.85 C92.8816313,7.99365256 92.7659008,8.22511352 92.77,8.47 C92.7691509,8.69563445 92.8771169,8.90784334 93.06,9.04 C93.3178964,9.2241104 93.6053709,9.36277459 93.91,9.45 C94.1615925,9.5297565 94.4086289,9.62322976 94.65,9.73 C94.8619158,9.8289195 95.062993,9.9495658 95.25,10.09 C95.4478566,10.2309659 95.6062389,10.420336 95.71,10.64 C95.8197551,10.881632 95.8744074,11.1446459 95.87,11.41 C95.8749354,11.6808336 95.8131162,11.9487168 95.69,12.19 C95.5777676,12.4073713 95.4127139,12.5930567 95.21,12.73 C95.0134718,12.8649331 94.7977102,12.9694426 94.57,13.04 C94.3455934,13.1033603 94.1131509,13.1336789 93.88,13.13 L93.88,13.13 Z M99.07,13.13 C98.4649236,13.1544064 97.8785269,12.9176624 97.46,12.48 C97.0360318,12.0139953 96.8132097,11.3994376 96.84,10.77 L96.84,7 L97.61,7 L97.61,10.8 C97.5832891,11.2349623 97.7226772,11.6638487 98,12 C98.5980804,12.5830499 99.5519196,12.5830499 100.15,12 C100.408323,11.6740126 100.53977,11.265461 100.52,10.85 L100.52,7 L101.29,7 L101.29,10.77 C101.317976,11.3960428 101.103012,12.0086899 100.69,12.48 C100.269893,12.9214604 99.6787335,13.1586539 99.07,13.13 L99.07,13.13 Z" id="Shape" stroke="#FFFFFF" stroke-width="0.2" fill="#FFFFFF"></path>
        </g>
    </g>
</svg>