<?xml version="1.0" encoding="UTF-8"?>
<svg width="135px" height="40px" viewBox="0 0 135 40" version="1.1" xmlns="http://www.w3.org/2000/svg" xmlns:xlink="http://www.w3.org/1999/xlink">
    <!-- Generator: Sketch 55.2 (78181) - https://sketchapp.com -->
    <title>ja</title>
    <desc>Created with Sketch.</desc>
    <defs>
        <linearGradient x1="61.0339412%" y1="4.9481245%" x2="26.5026568%" y2="71.9074222%" id="linearGradient-1">
            <stop stop-color="#00A0FF" offset="0%"></stop>
            <stop stop-color="#00A1FF" offset="1%"></stop>
            <stop stop-color="#00BEFF" offset="26%"></stop>
            <stop stop-color="#00D2FF" offset="51%"></stop>
            <stop stop-color="#00DFFF" offset="76%"></stop>
            <stop stop-color="#00E3FF" offset="100%"></stop>
        </linearGradient>
        <linearGradient x1="107.684729%" y1="50%" x2="-130.640394%" y2="50%" id="linearGradient-2">
            <stop stop-color="#FFE000" offset="0%"></stop>
            <stop stop-color="#FFBD00" offset="41%"></stop>
            <stop stop-color="#FFA500" offset="78%"></stop>
            <stop stop-color="#FF9C00" offset="100%"></stop>
        </linearGradient>
        <linearGradient x1="86.219293%" y1="30.9112842%" x2="-50.1497903%" y2="135.987548%" id="linearGradient-3">
            <stop stop-color="#FF3A44" offset="0%"></stop>
            <stop stop-color="#C31162" offset="100%"></stop>
        </linearGradient>
        <linearGradient x1="-18.7537448%" y1="-11.831554%" x2="42.1210306%" y2="35.0948125%" id="linearGradient-4">
            <stop stop-color="#32A071" offset="0%"></stop>
            <stop stop-color="#2DA771" offset="7%"></stop>
            <stop stop-color="#15CF74" offset="48%"></stop>
            <stop stop-color="#06E775" offset="80%"></stop>
            <stop stop-color="#00F076" offset="100%"></stop>
        </linearGradient>
    </defs>
    <g id="Page-1" stroke="none" stroke-width="1" fill="none" fill-rule="evenodd">
        <g id="ja" fill-rule="nonzero">
            <rect id="Rectangle" fill="#000000" x="0" y="0" width="135" height="40" rx="5"></rect>
            <path d="M130,0.8 C132.319596,0.8 134.2,2.68040405 134.2,5 L134.2,35 C134.2,37.3195959 132.319596,39.2 130,39.2 L5,39.2 C2.68040405,39.2 0.8,37.3195959 0.8,35 L0.8,5 C0.8,2.68040405 2.68040405,0.8 5,0.8 L130,0.8 L130,0.8 Z M130,0 L5,0 C2.23857625,0 0,2.23857625 0,5 L0,35 C0,37.7614237 2.23857625,40 5,40 L130,40 C132.761424,40 135,37.7614237 135,35 L135,5 C135,2.23857625 132.761424,0 130,0 Z" id="Shape" fill="#A6A6A6"></path>
            <path d="M64.72,12.79 C62.6668115,12.7955193 61.0063289,14.4634562 61.0099999,16.5166487 C61.0136831,18.5698413 62.6801293,20.2318199 64.7333244,20.2299866 C66.7865194,20.2281502 68.4499926,18.5631959 68.45,16.51 C68.4664703,15.5166938 68.0784501,14.5593651 67.3750377,13.8578386 C66.6716253,13.156312 65.7132584,12.7708632 64.72,12.79 L64.72,12.79 Z M64.72,18.79 C63.7932596,18.8557733 62.9206835,18.3476864 62.520455,17.5092408 C62.1202265,16.6707952 62.2738968,15.6728339 62.9078192,14.9936313 C63.5417417,14.3144287 64.5267472,14.0923802 65.3907704,14.4339028 C66.2547936,14.7754255 66.8217798,15.6109302 66.82,16.54 C66.8388358,17.1136707 66.627504,17.6710563 66.2330651,18.0880345 C65.8386262,18.5050128 65.2938317,18.7469608 64.72,18.76 L64.72,18.79 Z M56.58,12.79 C54.5268115,12.7955193 52.8663289,14.4634562 52.8699999,16.5166487 C52.8736831,18.5698413 54.5401293,20.2318199 56.5933244,20.2299866 C58.6465194,20.2281502 60.3099926,18.5631959 60.31,16.51 C60.3264703,15.5166938 59.9384501,14.5593651 59.2350377,13.8578386 C58.5316253,13.156312 57.5732584,12.7708632 56.58,12.79 L56.58,12.79 Z M56.58,18.79 C55.6532596,18.8557733 54.7806835,18.3476864 54.380455,17.5092408 C53.9802265,16.6707952 54.1338968,15.6728339 54.7678192,14.9936313 C55.4017417,14.3144287 56.3867472,14.0923802 57.2507704,14.4339028 C58.1147936,14.7754255 58.6817798,15.6109302 58.68,16.54 C58.6988358,17.1136707 58.487504,17.6710563 58.0930651,18.0880345 C57.6986262,18.5050128 57.1538317,18.7469608 56.58,18.76 L56.58,18.79 Z M46.9,13.93 L46.9,15.51 L50.67,15.51 C50.6186049,16.2549442 50.3153252,16.9602457 49.81,17.51 C49.0458239,18.2869242 47.9888455,18.7046304 46.9,18.66 C44.6627138,18.550734 42.904878,16.7049529 42.904878,14.465 C42.904878,12.2250471 44.6627138,10.379266 46.9,10.27 C47.9589277,10.2558624 48.980246,10.662232 49.74,11.4 L50.85,10.29 C49.788043,9.2385938 48.3439721,8.66457562 46.85,8.7 C43.6605556,8.7 41.075,11.2855556 41.075,14.475 C41.075,17.6644444 43.6605556,20.25 46.85,20.25 C48.3532216,20.3044279 49.8082964,19.7151226 50.85,18.63 C51.7716007,17.6264592 52.2634038,16.3018216 52.22,14.94 C52.226004,14.6048555 52.1992097,14.2699274 52.14,13.94 L46.9,13.93 Z M86.5,15.16 C86.0428679,13.7805954 84.7725172,12.8338246 83.32,12.79 C82.3533939,12.7940749 81.4307441,13.1943478 80.7673767,13.8974038 C80.1040093,14.6004598 79.757964,15.5447869 79.81,16.51 C79.7881859,17.4979084 80.1689524,18.4522327 80.8648449,19.1537829 C81.5607374,19.855333 82.5119473,20.2438143 83.5,20.23 C84.7451425,20.2366587 85.9101317,19.6165838 86.6,18.58 L85.33,17.74 C84.9374471,18.3710531 84.2431125,18.7504709 83.5,18.74 C82.7249879,18.7683068 82.0113361,18.3202921 81.7,17.61 L86.7,15.55 L86.5,15.16 Z M81.43,16.4 C81.3829786,15.8510684 81.5644817,15.3070515 81.9316809,14.8963184 C82.2988801,14.4855853 82.8192495,14.244518 83.37,14.23 C83.9468727,14.1924579 84.4902755,14.5035363 84.75,15.02 L81.43,16.4 Z M77.43,20.01 L79,20.01 L79,9.07 L77.39,9.07 L77.43,20.01 Z M74.75,13.63 L74.69,13.63 C74.1773145,13.0734176 73.4461275,12.7699751 72.69,12.8 C70.6355007,12.8 68.97,14.4655007 68.97,16.52 C68.97,18.5744993 70.6355007,20.24 72.69,20.24 C73.4489751,20.2745034 74.1832769,19.9660966 74.69,19.4 L74.75,19.4 L74.75,19.94 C74.75,21.36 73.99,22.12 72.75,22.12 C71.91708,22.0986612 71.1790291,21.5776841 70.88,20.8 L69.46,21.39 C70.0073763,22.7285411 71.3138943,23.599553 72.76,23.5900778 C74.68,23.5900778 76.29,22.46 76.29,19.72 L76.29,13 L74.72,13 L74.75,13.63 Z M72.88,18.77 C71.6927919,18.6908968 70.7702498,17.7048405 70.7702498,16.515 C70.7702498,15.3251595 71.6927919,14.3391032 72.88,14.26 C73.4501447,14.2852576 73.9854543,14.5414747 74.3627323,14.9696852 C74.7400103,15.3978957 74.926759,15.9612149 74.88,16.53 C74.921311,17.1002569 74.7260626,17.6623742 74.3401447,18.0842355 C73.9542268,18.5060967 73.4116724,18.7504992 72.84,18.76 L72.88,18.77 Z M94.19,9.08 L90.28,9.08 L90.28,20 L91.91,20 L91.91,15.86 L94.19,15.86 C95.4468828,15.9282393 96.6386226,15.2964941 97.2875943,14.2179549 C97.936566,13.1394156 97.936566,11.7905844 97.2875943,10.7120451 C96.6386226,9.63350593 95.4468828,9.00176067 94.19,9.07 L94.19,9.08 Z M94.19,14.35 L91.87,14.35 L91.87,10.59 L94.19,10.59 C95.2255339,10.59 96.065,11.4294661 96.065,12.465 C96.065,13.5005339 95.2255339,14.34 94.19,14.34 L94.19,14.35 Z M104.27,12.78 C103.054075,12.7078751 101.911165,13.3637719 101.36,14.45 L102.81,15.05 C103.104622,14.5120028 103.688791,14.1983547 104.3,14.25 C105.153833,14.1743413 105.91053,14.7975037 106,15.65 L106,15.76 C105.476391,15.4826015 104.892548,15.338358 104.3,15.34 C102.74,15.34 101.15,16.2 101.15,17.8 C101.180493,18.4815414 101.486013,19.1215977 101.996744,19.5739055 C102.507475,20.0262134 103.179771,20.2521193 103.86,20.2 C104.71525,20.273704 105.54037,19.8649998 106,19.14 L106,20 L107.57,20 L107.57,15.79 C107.59,13.85 106.15,12.77 104.28,12.77 L104.27,12.78 Z M104.07,18.78 C103.54,18.78 102.79,18.51 102.79,17.85 C102.79,17.01 103.72,16.68 104.52,16.68 C105.032928,16.6541976 105.543548,16.764602 106,17 C105.88207,17.9801167 105.066654,18.7275819 104.08,18.76 L104.07,18.78 Z M113.33,13 L111.46,17.74 L111.4,17.74 L109.46,13 L107.7,13 L110.61,19.62 L109,23.31 L110.7,23.31 L115.14,13 L113.33,13 Z M98.64,20 L100.27,20 L100.27,9.07 L98.64,9.07 L98.64,20 Z" id="Shape" fill="#FFFFFF"></path>
            <path d="M10.44,7.54 C10.114065,7.93110834 9.94955365,8.43179492 9.98,8.94 L9.98,31.06 C9.94955365,31.5682051 10.114065,32.0688917 10.44,32.46 L10.51,32.53 L22.9,20.15 L22.9,19.86 L10.51,7.47 L10.44,7.54 Z" id="Path" fill="url(#linearGradient-1)"></path>
            <path d="M27,24.28 L22.9,20.15 L22.9,19.86 L27,15.72 L27.09,15.77 L32,18.56 C33.4,19.35 33.4,20.65 32,21.45 L27.11,24.23 L27,24.28 Z" id="Path" fill="url(#linearGradient-2)"></path>
            <path d="M27.12,24.22 L22.9,20 L10.44,32.46 C11.0287177,32.9775224 11.902429,33.0027256 12.52,32.52 L27.13,24.22" id="Path" fill="url(#linearGradient-3)"></path>
            <path d="M27.12,15.78 L12.51,7.48 C11.892429,6.99727439 11.0187177,7.0224776 10.43,7.54 L22.9,20 L27.12,15.78 Z" id="Path" fill="url(#linearGradient-4)"></path>
            <path d="M27,24.13 L12.51,32.38 C11.9170385,32.8233364 11.1029615,32.8233364 10.51,32.38 L10.44,32.45 L10.51,32.52 C11.1018458,32.9666792 11.9181542,32.9666792 12.51,32.52 L27.12,24.22 L27,24.13 Z" id="Path" fill="#000000" opacity="0.2"></path>
            <path d="M10.44,32.32 C10.114065,31.9288917 9.94955365,31.4282051 9.98,30.92 L9.98,31.07 C9.94955365,31.5782051 10.114065,32.0788917 10.44,32.47 L10.51,32.4 L10.44,32.32 Z M32,21.3 L27,24.13 L27.09,24.22 L32,21.44 C32.5670701,21.1736132 32.9484684,20.6243997 33,20 C32.8860295,20.5648379 32.516706,21.0449585 32,21.3 Z" id="Shape" fill="#000000" opacity="0.12"></path>
            <path d="M12.51,7.62 L32,18.7 C32.516706,18.9550415 32.8860295,19.4351621 33,20 C32.9484684,19.3756003 32.5670701,18.8263868 32,18.56 L12.51,7.48 C11.11,6.69 9.97,7.35 9.97,8.95 L9.97,9.1 C10,7.49 11.12,6.83 12.51,7.62 L12.51,7.62 Z" id="Path" fill="#FFFFFF" opacity="0.25"></path>
            <g id="Group" transform="translate(41.000000, 25.000000)" fill="#FFFFFF" stroke="#FFFFFF" stroke-width="0.2">
                <path d="M0.8,2 L4.71,1.64 C5.71,1.56 6.52,1.51 7.11,1.49 L7.11,2.21 C6.52316834,2.18658255 5.93564502,2.23358442 5.36,2.35 C4.1858675,2.80094701 3.39731811,3.91280165 3.36,5.17 C3.36,6.91 4.98,7.46 6.43,7.51 L6.17,8.27 C4.52,8.2 2.64,7.27 2.64,5.33 C2.65103128,4.11378968 3.27541843,2.98537916 4.3,2.33 C3.52,2.42 1.09,2.65 0.12,2.85 L-1.42108547e-14,2.07 C0.35,2.06 0.63,2 0.8,2 L0.8,2 Z M6.59,4.55 L6.13,4.77 C5.92096212,4.3258332 5.67334546,3.90086947 5.39,3.5 L5.85,3.3 C6.12583091,3.70912767 6.3730855,4.13681128 6.59,4.58 L6.59,4.55 Z M7.59,4.16 L7.12,4.38 C6.90218919,3.94061308 6.64443744,3.52218492 6.35,3.13 L6.8,2.92 C7.09683968,3.32768519 7.37060211,3.7516831 7.62,4.19 L7.59,4.16 Z M16.56,5.76 L12.86,5.76 L12.86,7.76 C12.86,8.24 12.72,8.44 12.38,8.54 C11.7713809,8.66184359 11.1492596,8.7021974 10.53,8.66 C10.4581813,8.42671303 10.3609303,8.20202973 10.24,7.99 L11.91,7.99 C12.12,7.99 12.19,7.93 12.19,7.74 L12.19,5.74 L8.49,5.74 L8.49,5.1 L12.19,5.1 L12.19,3.64 L9.09,3.64 L9.09,3 L12.19,3 L12.19,1.61 C11.19,1.72 10.19,1.78 9.25,1.83 C9.2136611,1.62803675 9.15669616,1.43033489 9.08,1.24 C11.1306945,1.19622649 13.171442,0.941551928 15.17,0.48 L15.67,1.01 C14.7499886,1.26573553 13.8099578,1.44303671 12.86,1.54 L12.86,3 L16.05,3 L16.05,3.64 L12.86,3.64 L12.86,5.1 L16.55,5.1 L16.56,5.76 Z M19.3,1.25 C19.25,1.4 19.16,1.69 19.13,1.85 C18.8915582,2.97264164 18.7477204,4.11330845 18.7,5.26 C18.6965326,5.66776223 18.7199165,6.07531036 18.77,6.48 C18.92,6.07 19.12,5.55 19.27,5.2 L19.66,5.49 C19.4141536,6.14484086 19.2038475,6.8124795 19.03,7.49 C19.0180177,7.62306413 19.0180177,7.75693587 19.03,7.89 L19.03,8.2 L18.38,8.2 C18.1342614,7.28332247 18.0065624,6.33902165 18,5.39 C18.0468225,4.19189249 18.1805067,2.99876064 18.4,1.82 C18.4326263,1.61139456 18.4526625,1.40101389 18.46,1.19 L19.3,1.25 Z M21.3,5.57 C21.2258052,5.83722673 21.1854893,6.11271881 21.18,6.39 C21.18,6.8 21.45,7.19 22.67,7.19 C23.4248416,7.21456588 24.1799671,7.15079972 24.92,7 L24.92,7.76 C24.1873228,7.88980131 23.4440181,7.95006926 22.7,7.94 C21.21,7.94 20.54,7.44 20.54,6.61 C20.5505224,6.25612402 20.5974362,5.90427045 20.68,5.56 L21.3,5.57 Z M21,1.93 C22.2157683,2.07370392 23.4442317,2.07370392 24.66,1.93 L24.66,2.67 C23.4420028,2.7688623 22.2179972,2.7688623 21,2.67 L21,1.93 Z M30.67,1 C30.4876913,3.87799154 31.9267061,6.61713489 34.4,8.1 C34.1978276,8.2639371 34.0164795,8.45200187 33.86,8.66 C32.0336408,7.5545464 30.7425772,5.74633396 30.29,3.66 C29.808066,5.73875693 28.5156159,7.53882665 26.7,8.66 C26.5166769,8.4653068 26.3158304,8.28789245 26.1,8.13 C28.1,7.13 29.2,5.28 29.75,2.76 L30.15,2.82 C30.09,2.41 30.05,2.01 30.03,1.67 L27.8,1.67 L27.8,1 L30.67,1 Z M43.17,7.28 C42.7496326,7.74475543 42.1565065,8.01600209 41.53,8.03 C40.94,8.03 40.53,7.63 40.53,6.9 C40.53,5.9 40.86,4.44 40.86,3.58 C40.8895484,3.38240585 40.8251258,3.18234864 40.6858276,3.03912655 C40.5465294,2.89590446 40.3483386,2.8259507 40.15,2.85 C39.1097589,3.1161697 38.187869,3.72137986 37.53,4.57 L37.53,8.26 L36.75,8.26 L36.75,7.73 L36.75,5.44 L36.75,5.1 C36.32,5.76 35.75,6.61 35.3,7.21 L35,6.62 C35.5,6 36.52,4.62 37,3.91 L37.05,3.05 L35.31,3.28 L35.24,2.53 C35.4330861,2.54382718 35.6269139,2.54382718 35.82,2.53 C36.11,2.53 36.63,2.46 37.09,2.39 L37.09,1.55 C37.1126614,1.32724152 37.1126614,1.10275848 37.09,0.88 L37.95,0.88 C37.95,1.1 37.83,1.6 37.77,2.22 L38.03,2.54 L37.63,3.16 L37.63,3.66 C38.3584622,2.88574268 39.3147411,2.36381758 40.36,2.17 C40.6948967,2.12671612 41.0314461,2.23684232 41.2759746,2.46972665 C41.5205032,2.70261097 41.6469057,3.03339133 41.62,3.37 C41.62,4.26 41.29,5.8 41.29,6.7 C41.29,7.01 41.43,7.24 41.75,7.24 C42.2771247,7.1807905 42.759138,6.91460405 43.09,6.5 L43.17,7.28 Z M48.19,3.47 C48.19,4.05 48.19,4.92 48.28,5.69 C49.3061767,5.98121482 50.2531559,6.50085683 51.05,7.21 L50.62,7.88 C49.9685361,7.22476289 49.1794818,6.72263742 48.31,6.41 L48.31,7 C48.31,7.73 47.86,8.36 46.67,8.36 C45.48,8.36 44.55,8 44.55,7 C44.55,6.2 45.25,5.53 46.79,5.53 C47.0442026,5.52848761 47.2981866,5.54519709 47.55,5.58 C47.55,4.86 47.48,4.04 47.48,3.51 L47.48,1.88 C47.4727849,1.5852225 47.4460597,1.29124617 47.4,1 L48.26,1 C48.219879,1.29175569 48.1965074,1.5855705 48.19,1.88 L48.19,2.79 C48.9,2.79 50.03,2.73 50.83,2.62 L50.83,3.3 C50.04,3.37 48.89,3.43 48.17,3.44 L48.19,3.47 Z M47.58,6.22 C47.2941616,6.15828907 47.002418,6.12810869 46.71,6.13 C45.79,6.13 45.27,6.44 45.27,6.93 C45.27,7.42 45.77,7.7 46.62,7.7 C47.28,7.7 47.62,7.39 47.62,6.78 C47.59,6.63 47.58,6.44 47.58,6.21 L47.58,6.22 Z M56.41,3.7 C55.5815728,3.7311176 54.762482,3.88617183 53.98,4.16 C53.71,4.23 53.45,4.34 53.23,4.42 L53,3.59 C53.24,3.59 53.55,3.51 53.81,3.46 C54.6774148,3.21591173 55.5698593,3.0716444 56.47,3.03 C57.035769,2.97025525 57.6002075,3.15428614 58.0220329,3.53602863 C58.4438584,3.91777112 58.6831458,4.4610939 58.6800306,5.03 C58.6800306,6.97 56.96,8.03 54.68,8.41 L54.26,7.73 C56.42,7.46 57.95,6.61 57.95,5.01 C57.9456664,4.62231775 57.7736315,4.25551517 57.4783173,4.00430637 C57.1830032,3.75309758 56.7933601,3.64210914 56.41,3.7 L56.41,3.7 Z M58,1.38 L57.89,2.07 C56.89,2.01 55.1,1.83 54.09,1.65 L54.21,0.97 C55.4603384,1.20778538 56.7277361,1.34489174 58,1.38 L58,1.38 Z" id="Shape"></path>
            </g>
        </g>
    </g>
</svg>