<?xml version="1.0" encoding="UTF-8"?>
<svg width="135px" height="40px" viewBox="0 0 135 40" version="1.1" xmlns="http://www.w3.org/2000/svg" xmlns:xlink="http://www.w3.org/1999/xlink">
    <!-- Generator: Sketch 55.2 (78181) - https://sketchapp.com -->
    <title>pl</title>
    <desc>Created with Sketch.</desc>
    <defs>
        <linearGradient x1="61.0339412%" y1="4.9481245%" x2="26.5026568%" y2="71.9074222%" id="linearGradient-1">
            <stop stop-color="#00A0FF" offset="0%"></stop>
            <stop stop-color="#00A1FF" offset="1%"></stop>
            <stop stop-color="#00BEFF" offset="26%"></stop>
            <stop stop-color="#00D2FF" offset="51%"></stop>
            <stop stop-color="#00DFFF" offset="76%"></stop>
            <stop stop-color="#00E3FF" offset="100%"></stop>
        </linearGradient>
        <linearGradient x1="107.684729%" y1="50%" x2="-130.640394%" y2="50%" id="linearGradient-2">
            <stop stop-color="#FFE000" offset="0%"></stop>
            <stop stop-color="#FFBD00" offset="41%"></stop>
            <stop stop-color="#FFA500" offset="78%"></stop>
            <stop stop-color="#FF9C00" offset="100%"></stop>
        </linearGradient>
        <linearGradient x1="86.219293%" y1="30.9112842%" x2="-50.1497903%" y2="135.987548%" id="linearGradient-3">
            <stop stop-color="#FF3A44" offset="0%"></stop>
            <stop stop-color="#C31162" offset="100%"></stop>
        </linearGradient>
        <linearGradient x1="-18.7537448%" y1="-11.831554%" x2="42.1210306%" y2="35.0948125%" id="linearGradient-4">
            <stop stop-color="#32A071" offset="0%"></stop>
            <stop stop-color="#2DA771" offset="7%"></stop>
            <stop stop-color="#15CF74" offset="48%"></stop>
            <stop stop-color="#06E775" offset="80%"></stop>
            <stop stop-color="#00F076" offset="100%"></stop>
        </linearGradient>
    </defs>
    <g id="Page-1" stroke="none" stroke-width="1" fill="none" fill-rule="evenodd">
        <g id="pl" fill-rule="nonzero">
            <rect id="Rectangle" fill="#000000" x="0" y="0" width="135" height="40" rx="5"></rect>
            <path d="M130,0.8 C132.319596,0.8 134.2,2.68040405 134.2,5 L134.2,35 C134.2,37.3195959 132.319596,39.2 130,39.2 L5,39.2 C2.68040405,39.2 0.8,37.3195959 0.8,35 L0.8,5 C0.8,2.68040405 2.68040405,0.8 5,0.8 L130,0.8 L130,0.8 Z M130,0 L5,0 C2.23857625,0 0,2.23857625 0,5 L0,35 C0,37.7614237 2.23857625,40 5,40 L130,40 C132.761424,40 135,37.7614237 135,35 L135,5 C135,2.23857625 132.761424,0 130,0 Z" id="Shape" fill="#A6A6A6"></path>
            <path d="M68.14,21.75 C65.795425,21.7610334 63.9026739,23.6686811 63.9099995,26.0132706 C63.9173678,28.3578601 65.8220372,30.2536083 68.1666353,30.2499531 C70.5112334,30.2462873 72.409974,28.344601 72.4099995,26 C72.426473,24.8643738 71.9812316,23.7707097 71.1762551,22.9695037 C70.3712787,22.1682976 69.2755364,21.7281956 68.14,21.75 L68.14,21.75 Z M68.14,28.58 C67.0832273,28.6539053 66.088673,28.0743135 65.6320213,27.1184371 C65.1753697,26.1625607 65.3494358,25.0246828 66.0709659,24.249038 C66.7924959,23.4733932 67.9148379,23.2176324 68.9011878,23.6040831 C69.8875378,23.9905338 70.5374189,24.9406494 70.54,26 C70.5725428,26.6626719 70.3360327,27.3103928 69.8841403,27.7961771 C69.432248,28.2819613 68.8032921,28.5646164 68.14,28.58 L68.14,28.58 Z M58.83,21.75 C56.4840995,21.7555198 54.5863275,23.6607469 54.5899999,26.006651 C54.5936829,28.3525551 56.4974192,30.2518225 58.8433255,30.2499883 C61.1892318,30.2481513 63.0899999,28.345907 63.0899999,26 C63.106473,24.8643738 62.6612316,23.7707097 61.8562551,22.9695037 C61.0512787,22.1682976 59.9555364,21.7281956 58.82,21.75 L58.83,21.75 Z M58.83,28.58 C57.7726757,28.658073 56.7752215,28.0813713 56.3153517,27.1260966 C55.8554819,26.1708219 56.0268227,25.0314615 56.7473134,24.2536934 C57.467804,23.4759253 58.5907575,23.2180976 59.5783538,23.6036927 C60.5659501,23.9892877 61.2171215,24.9398011 61.22,26 C61.2525428,26.6626719 61.0160327,27.3103928 60.5641403,27.7961771 C60.112248,28.2819613 59.4832921,28.5646164 58.82,28.58 L58.83,28.58 Z M47.74,23.06 L47.74,24.86 L52.06,24.86 C51.9922634,25.7078038 51.6398446,26.5077945 51.06,27.13 C50.1860229,28.0202246 48.9765432,28.499658 47.73,28.45 C45.0790332,28.45 42.93,26.3009668 42.93,23.65 C42.93,20.9990332 45.0790332,18.85 47.73,18.85 C48.9477957,18.8301388 50.123762,19.2940521 51,20.14 L52.27,18.87 C51.0749196,17.6598581 49.4407184,16.9852541 47.74,17 C45.3189608,16.905779 43.0403936,18.1436718 41.801854,20.2260571 C40.5633145,22.3084423 40.5633145,24.9015577 41.801854,26.9839429 C43.0403936,29.0663282 45.3189608,30.304221 47.74,30.21 C49.471765,30.2882543 51.1527407,29.6136762 52.35,28.36 C53.3976757,27.2089216 53.9570431,25.6957612 53.91,24.14 C53.9132269,23.7609882 53.8797372,23.3825548 53.81,23.01 L47.74,23.06 Z M93.05,24.46 C92.5160796,22.8892101 91.0679278,21.811053 89.41,21.7499923 C88.3043635,21.7478383 87.2471451,22.2034076 86.4893794,23.0085336 C85.7316138,23.8136596 85.3408955,24.8965231 85.41,26 C85.385441,27.1292961 85.8211644,28.2200283 86.6170522,29.0215741 C87.4129399,29.8231198 88.5005582,30.2665588 89.63,30.2499923 C91.0508585,30.257659 92.3806434,29.5514455 93.17,28.37 L91.72,27.37 C91.279746,28.1039422 90.4858563,28.552167 89.63,28.55 C88.7435914,28.5837851 87.9266413,28.0721998 87.57,27.26 L93.26,24.91 L93.05,24.46 Z M87.25,25.88 C87.2090519,25.2551643 87.4213257,24.640145 87.8389667,24.1735911 C88.2566076,23.7070373 88.8444602,23.4282216 89.47,23.4 C90.1293698,23.3565516 90.7510664,23.7106826 91.05,24.3 L87.25,25.88 Z M82.63,30 L84.5,30 L84.5,17.5 L82.63,17.5 L82.63,30 Z M79.57,22.6999974 L79.5,22.6999974 C78.9299621,22.0626768 78.1150572,21.69888 77.26,21.6999974 C74.9901469,21.8100717 73.2063371,23.6824796 73.2063371,25.955 C73.2063371,28.2275204 74.9901469,30.0999283 77.26,30.21 C78.117829,30.2244237 78.9380159,29.8582688 79.5,29.21 L79.56,29.21 L79.56,29.82 C79.56,31.45 78.69,32.32 77.29,32.32 C76.336303,32.2976774 75.4907281,31.7010334 75.15,30.81 L73.52,31.49 C74.1476816,33.016811 75.6392308,34.0098583 77.29,34.0000727 C79.48,34.0000727 81.29,32.71 81.29,29.57 L81.29,22 L79.57,22 L79.57,22.6999974 Z M77.43,28.58 C76.0928876,28.4621598 75.0673763,27.342295 75.0673763,26 C75.0673763,24.657705 76.0928876,23.5378402 77.43,23.42 C78.0761196,23.4531575 78.6814859,23.7457702 79.1088498,24.2314965 C79.5362137,24.7172228 79.749373,25.3549169 79.7,26 C79.7551348,26.6480494 79.5426575,27.2904311 79.1119703,27.7777877 C78.6812831,28.2651443 78.0699104,28.5550138 77.42,28.58 L77.43,28.58 Z M101.81,17.5 L97.34,17.5 L97.34,30 L99.21,30 L99.21,25.26 L101.82,25.26 C103.272684,25.3643638 104.661974,24.648509 105.42013,23.404973 C106.178286,22.161437 106.178286,20.598563 105.42013,19.355027 C104.661974,18.111491 103.272684,17.3956362 101.82,17.5 L101.81,17.5 Z M101.81,23.5 L99.2,23.5 L99.2,19.24 L101.85,19.24 C103.034651,19.24 103.995,20.2003492 103.995,21.385 C103.995,22.5696508 103.034651,23.53 101.85,23.53 L101.81,23.5 Z M113.34,21.7 C111.948713,21.6168389 110.640687,22.367088 110.01,23.61 L111.67,24.3 C112.004406,23.6836682 112.671125,23.3228556 113.37,23.38 C113.849528,23.3239946 114.331454,23.4629701 114.707528,23.7657102 C115.083603,24.0684503 115.322299,24.5095749 115.37,24.99 L115.37,25.12 C114.769393,24.8019991 114.099592,24.6371252 113.42,24.64 C111.63,24.64 109.82,25.64 109.82,27.45 C109.855688,28.2297088 110.20524,28.9618295 110.789131,29.4797974 C111.373022,29.9977652 112.141598,30.2575326 112.92,30.2 C113.879229,30.2688831 114.799569,29.8087132 115.32,29 L115.38,29 L115.38,30 L117.18,30 L117.18,25.19 C117.18,23 115.52,21.73 113.39,21.73 L113.34,21.7 Z M113.11,28.55 C112.5,28.55 111.65,28.24 111.65,27.49 C111.65,26.49 112.71,26.16 113.65,26.16 C114.244042,26.1453419 114.831131,26.2903874 115.35,26.58 C115.220696,27.699415 114.286524,28.5525405 113.16,28.58 L113.11,28.55 Z M123.74,22 L121.6,27.42 L121.54,27.42 L119.32,22 L117.32,22 L120.65,29.58 L118.75,33.79 L120.7,33.79 L125.82,22 L123.74,22 Z M106.93,30 L108.8,30 L108.8,17.5 L106.93,17.5 L106.93,30 Z" id="Shape" fill="#FFFFFF"></path>
            <path d="M10.44,7.54 C10.114065,7.93110834 9.94955365,8.43179492 9.98,8.94 L9.98,31.06 C9.94955365,31.5682051 10.114065,32.0688917 10.44,32.46 L10.51,32.53 L22.9,20.15 L22.9,19.86 L10.51,7.47 L10.44,7.54 Z" id="Path" fill="url(#linearGradient-1)"></path>
            <path d="M27,24.28 L22.9,20.15 L22.9,19.86 L27,15.72 L27.09,15.77 L32,18.56 C33.4,19.35 33.4,20.65 32,21.45 L27.11,24.23 L27,24.28 Z" id="Path" fill="url(#linearGradient-2)"></path>
            <path d="M27.12,24.22 L22.9,20 L10.44,32.46 C11.0287177,32.9775224 11.902429,33.0027256 12.52,32.52 L27.13,24.22" id="Path" fill="url(#linearGradient-3)"></path>
            <path d="M27.12,15.78 L12.51,7.48 C11.892429,6.99727439 11.0187177,7.0224776 10.43,7.54 L22.9,20 L27.12,15.78 Z" id="Path" fill="url(#linearGradient-4)"></path>
            <path d="M27,24.13 L12.51,32.38 C11.9170385,32.8233364 11.1029615,32.8233364 10.51,32.38 L10.44,32.45 L10.51,32.52 C11.1018458,32.9666792 11.9181542,32.9666792 12.51,32.52 L27.12,24.22 L27,24.13 Z" id="Path" fill="#000000" opacity="0.2"></path>
            <path d="M10.44,32.32 C10.114065,31.9288917 9.94955365,31.4282051 9.98,30.92 L9.98,31.07 C9.94955365,31.5782051 10.114065,32.0788917 10.44,32.47 L10.51,32.4 L10.44,32.32 Z M32,21.3 L27,24.13 L27.09,24.22 L32,21.44 C32.5670701,21.1736132 32.9484684,20.6243997 33,20 C32.8860295,20.5648379 32.516706,21.0449585 32,21.3 Z" id="Shape" fill="#000000" opacity="0.12"></path>
            <path d="M12.51,7.62 L32,18.7 C32.516706,18.9550415 32.8860295,19.4351621 33,20 C32.9484684,19.3756003 32.5670701,18.8263868 32,18.56 L12.51,7.48 C11.11,6.69 9.97,7.35 9.97,8.95 L9.97,9.1 C10,7.49 11.12,6.83 12.51,7.62 L12.51,7.62 Z" id="Path" fill="#FFFFFF" opacity="0.25"></path>
            <path d="M42.17,13 L41.4,13 L41.4,7 L43.4,7 C43.8892548,6.99369251 44.3620824,7.17637594 44.72,7.51 C45.07779,7.83945847 45.2813567,8.30362915 45.2813567,8.79 C45.2813567,9.27637085 45.07779,9.74054153 44.72,10.07 C44.3626449,10.4045211 43.8894416,10.5873496 43.4,10.58 L42.17,10.58 L42.17,13 Z M42.17,9.83 L43.46,9.83 C43.7560457,9.84096736 44.0417164,9.72010665 44.24,9.5 C44.4355519,9.31151677 44.5460259,9.05159982 44.5460259,8.78 C44.5460259,8.50840018 44.4355519,8.24848323 44.24,8.06 C44.0417164,7.83989335 43.7560457,7.71903264 43.46,7.73 L42.17,7.73 L42.17,9.83 Z M51.2,12.22 C49.9829898,13.4302279 48.0170102,13.4302279 46.8,12.22 C45.6202689,10.9712339 45.6202689,9.01876613 46.8,7.77 C47.3819984,7.18374669 48.1739158,6.85403297 49,6.85403297 C49.8260842,6.85403297 50.6180016,7.18374669 51.2,7.77 C52.3847655,9.01675984 52.3847655,10.9732402 51.2,12.22 L51.2,12.22 Z M47.37,11.72 C48.2713239,12.6175651 49.7286761,12.6175651 50.63,11.72 C51.5151983,10.7441711 51.5151983,9.25582886 50.63,8.28 C49.7286761,7.38243493 48.2713239,7.38243493 47.37,8.28 C46.4848017,9.25582886 46.4848017,10.7441711 47.37,11.72 L47.37,11.72 Z M53.17,13 L53.17,7 L55.34,7 C55.7905605,6.99149081 56.2272206,7.15613316 56.56,7.46 C56.8982813,7.75357474 57.0887722,8.18217927 57.08,8.63 C57.0846929,8.89656215 57.0079426,9.15821095 56.86,9.38 C56.7131767,9.59543103 56.5087269,9.76522834 56.27,9.87 C56.5600671,9.96602197 56.8144622,10.1472349 57,10.39 C57.1922885,10.6350038 57.2946585,10.9385839 57.29,11.25 C57.3003361,11.7167258 57.1024315,12.1638434 56.75,12.47 C56.401804,12.7911878 55.9436653,12.966569 55.47,12.96 L53.17,13 Z M53.94,9.57 L55.34,9.57 C55.6046389,9.58104763 55.8607079,9.4749619 56.04,9.28 C56.2084099,9.10693729 56.2992675,8.87287081 56.291725,8.63150859 C56.2841824,8.39014638 56.1788872,8.16220968 56,8 C55.830816,7.80863046 55.5853181,7.70237016 55.33,7.71 L53.94,7.71 L53.94,9.57 Z M53.94,12.26 L55.49,12.26 C55.7642187,12.2691998 56.0282331,12.1555269 56.21,11.95 C56.3863151,11.7671249 56.4864241,11.524003 56.49,11.27 C56.49,10.7177153 56.0422847,10.27 55.49,10.27 L53.94,10.27 L53.94,12.26 Z M58.31,13 L58.31,7 L59.08,7 L59.08,13 L58.31,13 Z M64,7.74 L61.23,7.74 L61.23,9.64 L63.69,9.64 L63.69,10.36 L61.23,10.36 L61.23,12.26 L64,12.26 L64,13 L60.5,13 L60.5,7 L64,7 L64,7.74 Z M65.17,13 L65.17,7 L67.17,7 C67.6592548,6.99369251 68.1320824,7.17637594 68.49,7.51 C69.172395,8.1377435 69.2385531,9.19186227 68.64,9.9 C68.3850328,10.2103297 68.0326071,10.4253094 67.64,10.51 L69.32,13 L68.41,13 L66.79,10.57 L65.93,10.57 L65.93,13 L65.17,13 Z M65.94,9.85 L67.18,9.85 C67.4722218,9.85593268 67.7553752,9.74840606 67.97,9.55 C68.1847125,9.35629679 68.3050608,9.07913108 68.3,8.79 C68.2978436,8.52196616 68.1942231,8.26470145 68.01,8.07 C67.8117164,7.84989335 67.5260457,7.72903264 67.23,7.74 L65.94,7.74 L65.94,9.85 Z M69.85,13 L69.85,12.2 L73,7.74 L70,7.74 L70,7 L74,7 L74,7.8 L70.81,12.26 L74,12.26 L74,13 L69.85,13 Z M76.75,13 L76.75,12.2 L79.94,7.74 L76.88,7.74 L76.88,7 L80.88,7 L80.88,7.8 L77.69,12.26 L80.92,12.26 L80.92,13 L76.75,13 Z" id="Shape" stroke="#FFFFFF" stroke-width="0.2" fill="#FFFFFF"></path>
        </g>
    </g>
</svg>