<?xml version="1.0" encoding="UTF-8"?>
<svg width="135px" height="40px" viewBox="0 0 135 40" version="1.1" xmlns="http://www.w3.org/2000/svg" xmlns:xlink="http://www.w3.org/1999/xlink">
    <!-- Generator: Sketch 55.2 (78181) - https://sketchapp.com -->
    <title>pt</title>
    <desc>Created with Sketch.</desc>
    <defs>
        <linearGradient x1="61.0339412%" y1="4.9481245%" x2="26.5026568%" y2="71.9074222%" id="linearGradient-1">
            <stop stop-color="#00A0FF" offset="0%"></stop>
            <stop stop-color="#00A1FF" offset="1%"></stop>
            <stop stop-color="#00BEFF" offset="26%"></stop>
            <stop stop-color="#00D2FF" offset="51%"></stop>
            <stop stop-color="#00DFFF" offset="76%"></stop>
            <stop stop-color="#00E3FF" offset="100%"></stop>
        </linearGradient>
        <linearGradient x1="107.684729%" y1="50%" x2="-130.640394%" y2="50%" id="linearGradient-2">
            <stop stop-color="#FFE000" offset="0%"></stop>
            <stop stop-color="#FFBD00" offset="41%"></stop>
            <stop stop-color="#FFA500" offset="78%"></stop>
            <stop stop-color="#FF9C00" offset="100%"></stop>
        </linearGradient>
        <linearGradient x1="86.219293%" y1="30.9112842%" x2="-50.1497903%" y2="135.987548%" id="linearGradient-3">
            <stop stop-color="#FF3A44" offset="0%"></stop>
            <stop stop-color="#C31162" offset="100%"></stop>
        </linearGradient>
        <linearGradient x1="-18.7537448%" y1="-11.831554%" x2="42.1210306%" y2="35.0948125%" id="linearGradient-4">
            <stop stop-color="#32A071" offset="0%"></stop>
            <stop stop-color="#2DA771" offset="7%"></stop>
            <stop stop-color="#15CF74" offset="48%"></stop>
            <stop stop-color="#06E775" offset="80%"></stop>
            <stop stop-color="#00F076" offset="100%"></stop>
        </linearGradient>
    </defs>
    <g id="Page-1" stroke="none" stroke-width="1" fill="none" fill-rule="evenodd">
        <g id="pt" fill-rule="nonzero">
            <rect id="Rectangle" fill="#000000" x="0" y="0" width="135" height="40" rx="5"></rect>
            <path d="M130,0.8 C132.319596,0.8 134.2,2.68040405 134.2,5 L134.2,35 C134.2,37.3195959 132.319596,39.2 130,39.2 L5,39.2 C2.68040405,39.2 0.8,37.3195959 0.8,35 L0.8,5 C0.8,2.68040405 2.68040405,0.8 5,0.8 L130,0.8 L130,0.8 Z M130,0 L5,0 C2.23857625,0 0,2.23857625 0,5 L0,35 C0,37.7614237 2.23857625,40 5,40 L130,40 C132.761424,40 135,37.7614237 135,35 L135,5 C135,2.23857625 132.761424,0 130,0 Z" id="Shape" fill="#A6A6A6"></path>
            <path d="M68.14,21.75 C65.795425,21.7610334 63.9026739,23.6686811 63.9099995,26.0132706 C63.9173678,28.3578601 65.8220372,30.2536083 68.1666353,30.2499531 C70.5112334,30.2462873 72.409974,28.344601 72.4099995,26 C72.426473,24.8643738 71.9812316,23.7707097 71.1762551,22.9695037 C70.3712787,22.1682976 69.2755364,21.7281956 68.14,21.75 L68.14,21.75 Z M68.14,28.58 C67.0832273,28.6539053 66.088673,28.0743135 65.6320213,27.1184371 C65.1753697,26.1625607 65.3494358,25.0246828 66.0709659,24.249038 C66.7924959,23.4733932 67.9148379,23.2176324 68.9011878,23.6040831 C69.8875378,23.9905338 70.5374189,24.9406494 70.54,26 C70.5725428,26.6626719 70.3360327,27.3103928 69.8841403,27.7961771 C69.432248,28.2819613 68.8032921,28.5646164 68.14,28.58 L68.14,28.58 Z M58.83,21.75 C56.4840995,21.7555198 54.5863275,23.6607469 54.5899999,26.006651 C54.5936829,28.3525551 56.4974192,30.2518225 58.8433255,30.2499883 C61.1892318,30.2481513 63.0899999,28.345907 63.0899999,26 C63.106473,24.8643738 62.6612316,23.7707097 61.8562551,22.9695037 C61.0512787,22.1682976 59.9555364,21.7281956 58.82,21.75 L58.83,21.75 Z M58.83,28.58 C57.7726757,28.658073 56.7752215,28.0813713 56.3153517,27.1260966 C55.8554819,26.1708219 56.0268227,25.0314615 56.7473134,24.2536934 C57.467804,23.4759253 58.5907575,23.2180976 59.5783538,23.6036927 C60.5659501,23.9892877 61.2171215,24.9398011 61.22,26 C61.2525428,26.6626719 61.0160327,27.3103928 60.5641403,27.7961771 C60.112248,28.2819613 59.4832921,28.5646164 58.82,28.58 L58.83,28.58 Z M47.74,23.06 L47.74,24.86 L52.06,24.86 C51.9922634,25.7078038 51.6398446,26.5077945 51.06,27.13 C50.1860229,28.0202246 48.9765432,28.499658 47.73,28.45 C45.0790332,28.45 42.93,26.3009668 42.93,23.65 C42.93,20.9990332 45.0790332,18.85 47.73,18.85 C48.9477957,18.8301388 50.123762,19.2940521 51,20.14 L52.27,18.87 C51.0749196,17.6598581 49.4407184,16.9852541 47.74,17 C45.3189608,16.905779 43.0403936,18.1436718 41.801854,20.2260571 C40.5633145,22.3084423 40.5633145,24.9015577 41.801854,26.9839429 C43.0403936,29.0663282 45.3189608,30.304221 47.74,30.21 C49.471765,30.2882543 51.1527407,29.6136762 52.35,28.36 C53.3976757,27.2089216 53.9570431,25.6957612 53.91,24.14 C53.9132269,23.7609882 53.8797372,23.3825548 53.81,23.01 L47.74,23.06 Z M93.05,24.46 C92.5160796,22.8892101 91.0679278,21.811053 89.41,21.7499923 C88.3043635,21.7478383 87.2471451,22.2034076 86.4893794,23.0085336 C85.7316138,23.8136596 85.3408955,24.8965231 85.41,26 C85.385441,27.1292961 85.8211644,28.2200283 86.6170522,29.0215741 C87.4129399,29.8231198 88.5005582,30.2665588 89.63,30.2499923 C91.0508585,30.257659 92.3806434,29.5514455 93.17,28.37 L91.72,27.37 C91.279746,28.1039422 90.4858563,28.552167 89.63,28.55 C88.7435914,28.5837851 87.9266413,28.0721998 87.57,27.26 L93.26,24.91 L93.05,24.46 Z M87.25,25.88 C87.2090519,25.2551643 87.4213257,24.640145 87.8389667,24.1735911 C88.2566076,23.7070373 88.8444602,23.4282216 89.47,23.4 C90.1293698,23.3565516 90.7510664,23.7106826 91.05,24.3 L87.25,25.88 Z M82.63,30 L84.5,30 L84.5,17.5 L82.63,17.5 L82.63,30 Z M79.57,22.6999974 L79.5,22.6999974 C78.9299621,22.0626768 78.1150572,21.69888 77.26,21.6999974 C74.9901469,21.8100717 73.2063371,23.6824796 73.2063371,25.955 C73.2063371,28.2275204 74.9901469,30.0999283 77.26,30.21 C78.117829,30.2244237 78.9380159,29.8582688 79.5,29.21 L79.56,29.21 L79.56,29.82 C79.56,31.45 78.69,32.32 77.29,32.32 C76.336303,32.2976774 75.4907281,31.7010334 75.15,30.81 L73.52,31.49 C74.1476816,33.016811 75.6392308,34.0098583 77.29,34.0000727 C79.48,34.0000727 81.29,32.71 81.29,29.57 L81.29,22 L79.57,22 L79.57,22.6999974 Z M77.43,28.58 C76.0928876,28.4621598 75.0673763,27.342295 75.0673763,26 C75.0673763,24.657705 76.0928876,23.5378402 77.43,23.42 C78.0761196,23.4531575 78.6814859,23.7457702 79.1088498,24.2314965 C79.5362137,24.7172228 79.749373,25.3549169 79.7,26 C79.7551348,26.6480494 79.5426575,27.2904311 79.1119703,27.7777877 C78.6812831,28.2651443 78.0699104,28.5550138 77.42,28.58 L77.43,28.58 Z M101.81,17.5 L97.34,17.5 L97.34,30 L99.21,30 L99.21,25.26 L101.82,25.26 C103.272684,25.3643638 104.661974,24.648509 105.42013,23.404973 C106.178286,22.161437 106.178286,20.598563 105.42013,19.355027 C104.661974,18.111491 103.272684,17.3956362 101.82,17.5 L101.81,17.5 Z M101.81,23.5 L99.2,23.5 L99.2,19.24 L101.85,19.24 C103.034651,19.24 103.995,20.2003492 103.995,21.385 C103.995,22.5696508 103.034651,23.53 101.85,23.53 L101.81,23.5 Z M113.34,21.7 C111.948713,21.6168389 110.640687,22.367088 110.01,23.61 L111.67,24.3 C112.004406,23.6836682 112.671125,23.3228556 113.37,23.38 C113.849528,23.3239946 114.331454,23.4629701 114.707528,23.7657102 C115.083603,24.0684503 115.322299,24.5095749 115.37,24.99 L115.37,25.12 C114.769393,24.8019991 114.099592,24.6371252 113.42,24.64 C111.63,24.64 109.82,25.64 109.82,27.45 C109.855688,28.2297088 110.20524,28.9618295 110.789131,29.4797974 C111.373022,29.9977652 112.141598,30.2575326 112.92,30.2 C113.879229,30.2688831 114.799569,29.8087132 115.32,29 L115.38,29 L115.38,30 L117.18,30 L117.18,25.19 C117.18,23 115.52,21.73 113.39,21.73 L113.34,21.7 Z M113.11,28.55 C112.5,28.55 111.65,28.24 111.65,27.49 C111.65,26.49 112.71,26.16 113.65,26.16 C114.244042,26.1453419 114.831131,26.2903874 115.35,26.58 C115.220696,27.699415 114.286524,28.5525405 113.16,28.58 L113.11,28.55 Z M123.74,22 L121.6,27.42 L121.54,27.42 L119.32,22 L117.32,22 L120.65,29.58 L118.75,33.79 L120.7,33.79 L125.82,22 L123.74,22 Z M106.93,30 L108.8,30 L108.8,17.5 L106.93,17.5 L106.93,30 Z" id="Shape" fill="#FFFFFF"></path>
            <path d="M10.44,7.54 C10.114065,7.93110834 9.94955365,8.43179492 9.98,8.94 L9.98,31.06 C9.94955365,31.5682051 10.114065,32.0688917 10.44,32.46 L10.51,32.53 L22.9,20.15 L22.9,19.86 L10.51,7.47 L10.44,7.54 Z" id="Path" fill="url(#linearGradient-1)"></path>
            <path d="M27,24.28 L22.9,20.15 L22.9,19.86 L27,15.72 L27.09,15.77 L32,18.56 C33.4,19.35 33.4,20.65 32,21.45 L27.11,24.23 L27,24.28 Z" id="Path" fill="url(#linearGradient-2)"></path>
            <path d="M27.12,24.22 L22.9,20 L10.44,32.46 C11.0287177,32.9775224 11.902429,33.0027256 12.52,32.52 L27.13,24.22" id="Path" fill="url(#linearGradient-3)"></path>
            <path d="M27.12,15.78 L12.51,7.48 C11.892429,6.99727439 11.0187177,7.0224776 10.43,7.54 L22.9,20 L27.12,15.78 Z" id="Path" fill="url(#linearGradient-4)"></path>
            <path d="M27,24.13 L12.51,32.38 C11.9170385,32.8233364 11.1029615,32.8233364 10.51,32.38 L10.44,32.45 L10.51,32.52 C11.1018458,32.9666792 11.9181542,32.9666792 12.51,32.52 L27.12,24.22 L27,24.13 Z" id="Path" fill="#000000" opacity="0.2"></path>
            <path d="M10.44,32.32 C10.114065,31.9288917 9.94955365,31.4282051 9.98,30.92 L9.98,31.07 C9.94955365,31.5782051 10.114065,32.0788917 10.44,32.47 L10.51,32.4 L10.44,32.32 Z M32,21.3 L27,24.13 L27.09,24.22 L32,21.44 C32.5670701,21.1736132 32.9484684,20.6243997 33,20 C32.8860295,20.5648379 32.516706,21.0449585 32,21.3 Z" id="Shape" fill="#000000" opacity="0.12"></path>
            <path d="M12.51,7.62 L32,18.7 C32.516706,18.9550415 32.8860295,19.4351621 33,20 C32.9484684,19.3756003 32.5670701,18.8263868 32,18.56 L12.51,7.48 C11.11,6.69 9.97,7.35 9.97,8.95 L9.97,9.1 C10,7.49 11.12,6.83 12.51,7.62 L12.51,7.62 Z" id="Path" fill="#FFFFFF" opacity="0.25"></path>
            <path d="M41.34,13 L41.34,7 L43.18,7 C43.99914,6.96301656 44.7977196,7.26293561 45.39,7.83 C45.9492097,8.410365 46.2456507,9.19484906 46.21,10 C46.2429932,10.8066092 45.942859,11.5912974 45.38,12.17 C44.7877196,12.7370644 43.98914,13.0369834 43.17,13 L41.34,13 Z M42.11,12.26 L43.17,12.26 C43.7785576,12.2916923 44.3739444,12.075188 44.82,11.66 C45.2434347,11.2143911 45.4641496,10.6137573 45.43,10 C45.4819394,9.38793776 45.2619959,8.78401656 44.8286112,8.34870567 C44.3952265,7.91339479 43.7922866,7.69077532 43.18,7.74 L42.11,7.74 L42.11,12.26 Z M47.3,13 L47.3,7 L48.07,7 L48.07,13 L47.3,13 Z M51.13,13.13 C50.6692605,13.1217398 50.2222798,12.9715822 49.85,12.7 C49.4358545,12.4169838 49.1431783,11.9886772 49.03,11.5 L49.73,11.22 C49.8102112,11.5426937 49.9883689,11.8326366 50.24,12.05 C50.4804121,12.2695246 50.7944415,12.3908542 51.12,12.39 C51.4274459,12.4001684 51.7296824,12.3087945 51.98,12.13 C52.2146721,11.966871 52.3503,11.6956151 52.34,11.41 C52.3528682,11.10996 52.2184831,10.8225251 51.98,10.64 C51.6347914,10.4074879 51.2527336,10.2350548 50.85,10.13 C50.4018267,10.0098234 49.9876386,9.78732569 49.64,9.48 C49.371065,9.21761351 49.2226632,8.8556579 49.23,8.48 C49.2306816,8.05062162 49.4165638,7.64240976 49.74,7.36 C50.103425,7.03209757 50.5809313,6.85976448 51.07,6.88 C51.514792,6.85984138 51.9528735,6.99409217 52.31,7.26 C52.5952585,7.4681973 52.8112863,7.7573958 52.93,8.09 L52.23,8.38 C52.1687379,8.16724566 52.0386034,7.98083677 51.86,7.85 C51.4029836,7.52123476 50.7870164,7.52123476 50.33,7.85 C50.1316313,7.99365256 50.0159008,8.22511352 50.02,8.47 C50.0191509,8.69563445 50.1271169,8.90784334 50.31,9.04 C50.5678964,9.2241104 50.8553709,9.36277459 51.16,9.45 C51.4115925,9.5297565 51.6586289,9.62322976 51.9,9.73 C52.1119158,9.8289195 52.312993,9.9495658 52.5,10.09 C52.6978566,10.2309659 52.8562389,10.420336 52.96,10.64 C53.0697551,10.881632 53.1244074,11.1446459 53.12,11.41 C53.1249354,11.6808336 53.0631162,11.9487168 52.94,12.19 C52.8277676,12.4073713 52.6627139,12.5930567 52.46,12.73 C52.2634718,12.8649331 52.0477102,12.9694426 51.82,13.04 C51.5955934,13.1033603 51.3631509,13.1336789 51.13,13.13 L51.13,13.13 Z M55,13 L54.23,13 L54.23,7 L56.23,7 C56.7192548,6.99369251 57.1920824,7.17637594 57.55,7.51 C57.90779,7.83945847 58.1113567,8.30362915 58.1113567,8.79 C58.1113567,9.27637085 57.90779,9.74054153 57.55,10.07 C57.1926449,10.4045211 56.7194416,10.5873496 56.23,10.58 L55,10.58 L55,13 Z M55,9.83 L56.3,9.83 C56.5960457,9.84096736 56.8817164,9.72010665 57.08,9.5 C57.2755519,9.31151677 57.3860259,9.05159982 57.3860259,8.78 C57.3860259,8.50840018 57.2755519,8.24848323 57.08,8.06 C56.8817164,7.83989335 56.5960457,7.71903264 56.3,7.73 L55,7.73 L55,9.83 Z M64,12.22 C62.7829898,13.4302279 60.8170102,13.4302279 59.6,12.22 C58.4202689,10.9712339 58.4202689,9.01876613 59.6,7.77 C60.1819984,7.18374669 60.9739158,6.85403297 61.8,6.85403297 C62.6260842,6.85403297 63.4180016,7.18374669 64,7.77 C65.1847655,9.01675984 65.1847655,10.9732402 64,12.22 L64,12.22 Z M60.17,11.72 C61.0713239,12.6175651 62.5286761,12.6175651 63.43,11.72 C64.3151983,10.7441711 64.3151983,9.25582886 63.43,8.28 C62.5286761,7.38243493 61.0713239,7.38243493 60.17,8.28 C59.2848017,9.25582886 59.2848017,10.7441711 60.17,11.72 L60.17,11.72 Z M66,13 L66,7 L66.94,7 L69.86,11.67 L69.86,7 L70.63,7 L70.63,13 L69.83,13 L66.78,8.11 L66.78,13 L66,13 Z M72,13 L72,7 L72.77,7 L72.77,13 L72,13 Z M72.72,6.53 L72.05,6.53 L72.49,5.46 L73.33,5.46 L72.72,6.53 Z M75.64,13 L73.53,7 L74.38,7 L76,11.87 L77.77,7 L78.62,7 L76.44,13 L75.64,13 Z M83,7.74 L80.26,7.74 L80.26,9.64 L82.72,9.64 L82.72,10.36 L80.26,10.36 L80.26,12.26 L83,12.26 L83,13 L79.5,13 L79.5,7 L83,7 L83,7.74 Z M84.2,13 L84.2,7 L85,7 L85,12.26 L87.6,12.26 L87.6,13 L84.2,13 Z M90.55,13 L90.55,7 L91.49,7 L94.41,11.67 L94.41,7 L95.18,7 L95.18,13 L94.38,13 L91.33,8.11 L91.33,13 L90.55,13 Z M101.46,12.22 C100.24299,13.4302279 98.2770102,13.4302279 97.06,12.22 C95.8802689,10.9712339 95.8802689,9.01876613 97.06,7.77 C97.6419984,7.18374669 98.4339158,6.85403297 99.26,6.85403297 C100.086084,6.85403297 100.878002,7.18374669 101.46,7.77 C102.644766,9.01675984 102.644766,10.9732402 101.46,12.22 L101.46,12.22 Z M97.63,11.72 C98.5313239,12.6175651 99.9886761,12.6175651 100.89,11.72 C101.775198,10.7441711 101.775198,9.25582886 100.89,8.28 C99.9886761,7.38243493 98.5313239,7.38243493 97.63,8.28 C96.7448017,9.25582886 96.7448017,10.7441711 97.63,11.72 Z" id="Shape" stroke="#FFFFFF" stroke-width="0.2" fill="#FFFFFF"></path>
        </g>
    </g>
</svg>